<?xml version="1.0" encoding="utf-8"?>
<!-- Generator: Adobe Illustrator 19.0.0, SVG Export Plug-In . SVG Version: 6.00 Build 0)  -->
<svg version="1.1" id="图层_1" xmlns="http://www.w3.org/2000/svg" xmlns:xlink="http://www.w3.org/1999/xlink" x="0px" y="0px"
	 viewBox="0 0 220 55" style="enable-background:new 0 0 220 55;" xml:space="preserve">
<style type="text/css">
	.st0{fill:#FFFFFF;}
</style>
<path id="XMLID_1_" class="st0" d="M212.3,48.3H8.3c-2.2,0-4-1.8-4-4v-26c0-2.2,1.8-4,4-4h177L193,5l8,9.3h11.3c2.2,0,4,1.8,4,4v26
	C216.3,46.5,214.5,48.3,212.3,48.3z"/>
<g id="XMLID_79_">
	<path id="XMLID_80_" d="M47.4,33.7c0.2,0.1,0.4,0.3,0.8,0.5c0.8,0.5,1.8,0.5,3.2,0.5s3.2-0.1,4.4-0.3c-0.1,0.3-0.3,0.9-0.3,1.2
		c-0.8,0.1-2.9,0.1-4.1,0.1c-1.5,0-2.5-0.1-3.3-0.6c-0.5-0.3-0.9-0.7-1.2-0.7c-0.4,0-0.9,0.7-1.5,1.5l-0.7-1
		c0.6-0.6,1.2-1.1,1.7-1.3v-3.2h-1.5v-1h2.6V33.7z M46.9,27.9c-0.4-0.5-1.2-1.4-1.8-2l0.8-0.6c0.6,0.6,1.5,1.4,1.9,1.9L46.9,27.9z
		 M50.8,31.2c-0.2,1.1-0.7,2.2-1.6,3c-0.2-0.2-0.6-0.6-0.8-0.8c0.8-0.6,1.2-1.4,1.4-2.2h-1.5v-1.1h1.7c0-0.3,0-0.5,0-0.8v-1.1h-1.6
		v-1.1h1.6v-1.8h1.1v1.8h1.7v-1.8h1.1v1.8h1.5v1.1h-1.5v1.9h1.7v1.1h-1.7v2.9h-1.1v-2.9H50.8z M50.9,29.3c0,0.3,0,0.5,0,0.8h1.7
		v-1.9h-1.7V29.3z"/>
	<path id="XMLID_85_" d="M60.2,25.2c3.8,2.7,3.5,7.1,7.4,9.5c-0.2,0.3-0.5,0.9-0.5,1.3c-2.6-1.5-3.5-4.1-4.8-6.4
		c-0.9,2.9-2.4,5-4.7,6.4c-0.2-0.2-0.7-0.7-1-0.9c2.6-1.3,4.1-3.7,4.8-7c-0.5-0.7-1.1-1.4-1.9-1.9L60.2,25.2z"/>
	<path id="XMLID_87_" d="M71.1,29c-0.6,0.6-1.3,1.2-2,1.6c-0.1-0.3-0.4-0.6-0.6-0.8c0.8-0.3,1.6-1,2.2-1.7h-2v-0.9h2.4V25h1v2.2h2.4
		v0.9h-2.1c0.6,0.3,1.5,0.9,1.7,1.1l-0.6,0.8c-0.3-0.3-0.9-0.8-1.4-1.2v1.5h-1V29z M73,35.2c-0.3-0.2-0.6-0.4-1-0.6
		c-0.8,0.6-1.8,1.1-2.9,1.4c-0.1-0.2-0.3-0.6-0.5-0.8c0.9-0.2,1.8-0.6,2.5-1c-0.6-0.3-1.2-0.6-1.8-0.8c0.2-0.3,0.5-0.8,0.7-1.2H69
		v-0.9h1.6c0.1-0.3,0.2-0.5,0.3-0.7l1,0.2c-0.1,0.2-0.2,0.4-0.2,0.6h1.8l0.2,0l0.6,0.2c-0.3,1-0.8,1.9-1.4,2.6
		c0.3,0.2,0.7,0.4,0.9,0.6L73,35.2z M69.8,27.2c-0.1-0.4-0.4-1.1-0.7-1.5l0.8-0.3c0.3,0.5,0.6,1.1,0.7,1.5L69.8,27.2z M71.1,32.1
		c-0.2,0.3-0.3,0.6-0.5,0.8c0.4,0.2,0.8,0.4,1.2,0.6c0.4-0.4,0.7-0.9,1-1.4H71.1z M74.3,25.6c-0.4,0.5-0.7,1.1-1.1,1.5l-0.7-0.3
		c0.3-0.4,0.6-1.1,0.9-1.6L74.3,25.6z M78.7,28.3c-0.3,1.7-0.6,3.2-1.2,4.4c0.6,1,1.3,1.8,2.3,2.4c-0.3,0.2-0.6,0.6-0.7,0.9
		c-0.9-0.5-1.6-1.3-2.2-2.2c-0.7,1-1.6,1.8-2.7,2.4c-0.1-0.2-0.4-0.7-0.6-0.9c1.2-0.6,2.1-1.4,2.8-2.5c-0.4-0.9-0.7-1.8-1-2.9
		c-0.2,0.5-0.5,0.9-0.7,1.3c-0.2-0.2-0.6-0.5-0.8-0.7c0.9-1.3,1.5-3.3,1.8-5.3l1,0.1c-0.1,0.7-0.2,1.4-0.4,2h3.3v1H78.7z M76,28.3
		c0.2,1.2,0.5,2.2,0.9,3.2c0.3-0.9,0.6-2,0.8-3.2H76z"/>
	<path id="XMLID_95_" d="M83.1,31.6v3.1c0,0.6-0.1,0.9-0.4,1c-0.3,0.2-0.8,0.2-1.6,0.2c0-0.3-0.2-0.7-0.3-1c0.5,0,0.9,0,1.1,0
		c0.2,0,0.2,0,0.2-0.2v-2.8l-1.3,0.4l-0.3-1.1c0.4-0.1,1-0.3,1.5-0.4v-2.4h-1.4v-1H82v-2.3h1v2.3h1.3v1h-1.3v2.1l1.2-0.3l0.2,1
		L83.1,31.6z M89,30.9v1.3h2.2V36h-1v-0.4h-3.3V36h-1v-3.8h2v-1.3h-2.1c-0.1,1.8-0.5,3.7-1.4,5.1c-0.2-0.2-0.7-0.5-0.9-0.6
		c1.2-1.8,1.3-4.4,1.3-6.3v-3.6h6.4v3.2H89V30h2.5v0.9H89z M87.9,30v-1.2h-2.1v0.4c0,0.3,0,0.5,0,0.8H87.9z M85.9,26.5v1.3h4.2v-1.3
		H85.9z M90.2,33.2h-3.3v1.5h3.3V33.2z"/>
	<path id="XMLID_101_" d="M103.5,26.2v1h-8.8v2.4c0,1.9-0.2,4.7-1.2,6.5c-0.2-0.2-0.7-0.5-0.9-0.6c1-1.7,1.1-4.1,1.1-5.9v-3.4h4.6
		c-0.1-0.3-0.3-0.6-0.4-0.9l1.1-0.3c0.2,0.3,0.5,0.8,0.6,1.2H103.5z M100.2,33.3h3.3v1h-3.3V36h-1.1v-1.7H95v-1h4.1v-1.2h-1.9
		c-0.6,0-1,0.1-1.1,0.2c-0.1-0.2-0.3-0.8-0.4-1.1c0.2-0.1,0.4-0.3,0.7-0.7c0.1-0.2,0.3-0.5,0.6-1h-1.6v-1h2.1
		c0.2-0.4,0.3-0.8,0.4-1.1l1.2,0.4c-0.1,0.2-0.2,0.5-0.3,0.8h4.4v1h-4.9c-0.3,0.6-0.6,1.1-1,1.6h2V30h1.1v1.1h2.5l0,1h-2.5V33.3z"/>
	<path id="XMLID_104_" d="M111.7,27.4c1,1,2.5,1.9,3.9,2.3c-0.2,0.2-0.6,0.6-0.7,0.9c-1.6-0.6-3.2-1.7-4.3-3v2.2h-1.1v-2.2
		c-1.1,1.4-2.7,2.5-4.3,3.1c-0.2-0.3-0.5-0.7-0.7-0.9c1.4-0.5,2.9-1.4,3.8-2.4h-3.5v-1h4.7V25h1.1v1.4h4.8v1H111.7z M105,34.7h10.3
		v1H105V34.7z M113.4,30.1v3.9h-6.7v-3.9H113.4z M112.3,30.9h-4.5v0.8h4.5V30.9z M112.3,32.5h-4.5v0.8h4.5V32.5z"/>
	<path id="XMLID_110_" d="M120.8,29.6c-0.1,0.2-0.3,0.5-0.4,0.7h5.8v5.8h-1.1v-0.5h-4.8v0.5h-1.1v-4.2c-0.6,0.6-1.2,1.2-2,1.6
		c-0.1-0.3-0.5-0.7-0.7-0.9c1.3-0.7,2.3-1.8,3-3h-2.7v-0.9h3.2c0.1-0.2,0.2-0.5,0.3-0.7h-2.7v-0.9h3c0.1-0.2,0.1-0.5,0.2-0.7
		c-1.1,0-2.1,0.1-3.1,0.1c0-0.3-0.1-0.6-0.2-0.9c2.9,0,6.4-0.2,8.4-0.5l0.7,0.8c-1.2,0.2-2.8,0.4-4.5,0.5c-0.1,0.3-0.2,0.5-0.2,0.7
		h4.8V28h-5.1c-0.1,0.2-0.2,0.5-0.3,0.7h6.1v0.9H120.8z M125.1,31.2h-4.8v0.7h4.8V31.2z M120.3,33.3h4.8v-0.7h-4.8V33.3z
		 M125.1,34.7V34h-4.8v0.7H125.1z"/>
	<path id="XMLID_115_" d="M134.7,30.4V32h3v1h-3v1.7h4.5v1h-10.1v-1h4.5V33h-2.9v-1h2.9v-1.7h-3v-0.8c-0.4,0.3-0.9,0.5-1.3,0.7
		c-0.2-0.3-0.5-0.7-0.8-0.9c2.2-0.9,4.3-2.6,5.5-4.5l1,0.5c-0.1,0.1-0.1,0.2-0.2,0.3c1.5,1.6,3.2,2.8,5.1,3.7
		c-0.3,0.2-0.6,0.6-0.8,0.9c-0.4-0.3-0.9-0.5-1.3-0.8v0.8H134.7z M137.4,29.4c-1.2-0.8-2.3-1.7-3.3-2.9c-0.9,1.1-2.1,2.1-3.3,2.9
		H137.4z"/>
	<path id="XMLID_118_" d="M146.2,27.6c-0.3,0.7-0.6,1.4-0.8,2h1.6v1h-6.3v-1h1.7c-0.1-0.5-0.4-1.3-0.7-1.9l1-0.3
		c0.3,0.6,0.6,1.4,0.7,1.9l-0.9,0.3h1.8c0.3-0.6,0.6-1.5,0.8-2.2L146.2,27.6z M146.7,27.4h-5.7v-1h2.4c-0.1-0.4-0.3-0.8-0.4-1.2
		l1-0.3c0.2,0.5,0.5,1,0.6,1.4h2.1V27.4z M141.4,31.6h5.1v4.3h-1.1v-0.5h-3V36h-1.1V31.6z M142.4,32.6v1.9h3v-1.9H142.4z
		 M151.5,26.1c-0.4,1.1-0.9,2.5-1.4,3.6c1,1.1,1.2,2,1.2,2.8c0,0.8-0.2,1.3-0.6,1.6c-0.2,0.1-0.5,0.2-0.7,0.3c-0.3,0-0.6,0-1,0
		c0-0.3-0.1-0.8-0.3-1.1c0.3,0,0.6,0,0.8,0c0.2,0,0.3,0,0.5-0.1c0.2-0.1,0.3-0.5,0.3-0.9c0-0.7-0.3-1.6-1.3-2.6
		c0.4-1,0.8-2.2,1.1-3.1h-1.7V36h-1V25.6h3l0.2,0L151.5,26.1z"/>
	<path id="XMLID_124_" d="M163.4,32.5h-2.5v2.3c0,0.6-0.2,0.9-0.6,1c-0.5,0.1-1.2,0.2-2.4,0.2c-0.1-0.3-0.2-0.7-0.4-1
		c0.8,0,1.7,0,1.9,0c0.2,0,0.3-0.1,0.3-0.2v-2.3h-4.1c0.7,0.6,1.4,1.3,1.8,1.8l-0.8,0.8c-0.4-0.6-1.2-1.5-2-2.1l0.6-0.5h-2.3v-1h6.8
		v-0.8h1.2v0.8h2.5V32.5z M156.4,30.4c-2.1,0-2.7-0.3-2.7-1.5v-3.5h8.3v3h-7.1v0.5c0,0.5,0.3,0.6,1.5,0.6h4.5c0.9,0,1.1-0.1,1.2-0.9
		c0.3,0.2,0.7,0.3,1.1,0.3c-0.2,1.2-0.6,1.5-2.2,1.5H156.4z M154.9,26.4v1h6v-1H154.9z"/>
	<path id="XMLID_128_" d="M166.2,32.2h-1v-5.8h1V32.2z M167.1,25.1h1v4.7c0,2.4-0.2,4.6-2,6.2c-0.2-0.2-0.6-0.6-0.8-0.7
		c1.6-1.4,1.8-3.4,1.8-5.5V25.1z M172.5,26.6v1.3h2.5v5.2c0,0.5-0.1,0.8-0.4,0.9c-0.3,0.2-0.7,0.2-1.4,0.2c0-0.3-0.2-0.7-0.3-1
		c0.4,0,0.8,0,0.9,0c0.1,0,0.2,0,0.2-0.2v-4.2h-1.5V36h-1v-7.1h-1.4v5.4h-1v-6.4h2.4v-1.3h-2.8v-1h6.7v1H172.5z"/>
</g>
</svg>
