<?xml version="1.0" encoding="utf-8"?>
<!-- Generator: Adobe Illustrator 19.0.0, SVG Export Plug-In . SVG Version: 6.00 Build 0)  -->
<svg version="1.1" id="图层_1" xmlns="http://www.w3.org/2000/svg" xmlns:xlink="http://www.w3.org/1999/xlink" x="0px" y="0px"
	 viewBox="0 0 220 55" style="enable-background:new 0 0 220 55;" xml:space="preserve">
<style type="text/css">
	.st0{fill:#FFFFFF;}
	.st1{fill:#2D2D2D;}
</style>
<path id="XMLID_1_" class="st0" d="M212.3,48.3H8.3c-2.2,0-4-1.8-4-4v-26c0-2.2,1.8-4,4-4h177L193,5l8,9.3h11.3c2.2,0,4,1.8,4,4v26
	C216.3,46.5,214.5,48.3,212.3,48.3z"/>
<g id="XMLID_3_">
	<path id="XMLID_4_" class="st1" d="M16.4,32.1v3.4h-1.2V27h3.3c0.9,0,1.6,0.2,2.1,0.7s0.8,1.1,0.8,1.9c0,0.8-0.3,1.4-0.8,1.9
		s-1.2,0.7-2.1,0.7H16.4z M16.4,31.2h2.1c0.6,0,1-0.2,1.3-0.5s0.4-0.7,0.4-1.2s-0.1-0.9-0.4-1.2s-0.7-0.5-1.3-0.5h-2.1V31.2z"/>
	<path id="XMLID_7_" class="st1" d="M24.1,35.5H23V27h1.2V35.5z"/>
	<path id="XMLID_9_" class="st1" d="M32.3,32.8L32.3,32.8c0,0.8-0.3,1.5-0.8,2s-1.3,0.8-2.3,0.8c-1,0-1.8-0.3-2.4-1S25.9,33,25.9,32
		v-1.5c0-1.1,0.3-1.9,0.9-2.6s1.4-1,2.4-1s1.7,0.3,2.3,0.8s0.8,1.2,0.8,2l0,0h-1.1c0-0.6-0.2-1.1-0.5-1.4s-0.8-0.5-1.5-0.5
		c-0.6,0-1.2,0.3-1.5,0.8s-0.6,1.2-0.6,1.9V32c0,0.8,0.2,1.4,0.6,1.9s0.9,0.8,1.5,0.8c0.6,0,1.1-0.2,1.5-0.5s0.5-0.8,0.5-1.4H32.3z"
		/>
	<path id="XMLID_11_" class="st1" d="M35.7,31.6H35v3.9h-1.2V27H35v3.8h0.6l3.2-3.8h1.3l0,0l-3.5,4l3.7,4.4l0,0h-1.4L35.7,31.6z"/>
	<path id="XMLID_13_" class="st1" d="M47.7,34.3c-0.8,0.7-1.9,1.4-2.9,1.9c-0.2-0.2-0.5-0.4-0.7-0.6c1-0.4,2.1-1,2.8-1.6L47.7,34.3z
		 M50,33.4v2.1c0,0.5-0.1,0.7-0.4,0.8c-0.4,0.1-0.9,0.1-1.7,0.1c0-0.3-0.2-0.6-0.3-0.8c0.6,0,1.2,0,1.3,0s0.2,0,0.2-0.2v-2
		c-3.3,0.2-3.8,0.2-4.1,0.3c0-0.2-0.1-0.6-0.2-0.8c0.4,0,0.9-0.2,1.6-0.4c0.4-0.1,1.2-0.4,2.1-0.9c-2.2,0.1-2.6,0.2-2.8,0.3
		c0-0.2-0.2-0.6-0.3-0.8c0.2,0,0.5-0.1,0.8-0.3c0.3-0.1,0.9-0.5,1.6-0.9h-2.5v-4.1h8.7V30H49c-0.6,0.4-1.2,0.8-1.8,1.1l2.7-0.1
		c0.5-0.3,1-0.5,1.4-0.8l0.7,0.5c-1.5,0.9-3,1.6-4.5,2.1l4.9-0.2c-0.3-0.3-0.6-0.6-0.9-0.8l0.6-0.4c0.8,0.6,1.8,1.5,2.3,2.1L53.7,34
		c-0.2-0.2-0.4-0.5-0.6-0.7L50,33.4z M46,27.6h3v-1h-3V27.6z M46,29.3h3v-1h-3V29.3z M53,26.6h-3.1v1H53V26.6z M53,28.3h-3.1v1H53
		V28.3z M51.5,34c1,0.5,2.3,1.2,3,1.7l-0.7,0.5c-0.6-0.5-1.9-1.3-2.9-1.8L51.5,34z"/>
	<path id="XMLID_21_" class="st1" d="M66.1,26.9c-1.1,1.2-2.7,2.4-4.2,3.2v5.2c0,0.6-0.2,0.9-0.6,1c-0.5,0.1-1.2,0.2-2.5,0.2
		c0-0.3-0.2-0.6-0.4-0.9c1,0,1.9,0,2.2,0c0.3,0,0.3-0.1,0.3-0.3v-5.6c1.2-0.6,2.4-1.5,3.3-2.4h-7.7v-0.9h8.6l0.2-0.1L66.1,26.9z"/>
	<path id="XMLID_23_" class="st1" d="M71.9,28.7c0-0.8-0.5-1.4-1.5-1.4c-0.7,0-1.3,0.3-1.9,1l-0.6-0.6c0.7-0.8,1.5-1.3,2.7-1.3
		c1.5,0,2.4,0.9,2.4,2.2c0,1.8-2.5,2.2-2.2,4h-1C69.4,30.6,71.9,30,71.9,28.7z M70.3,33.7c0.5,0,1,0.4,1,0.9c0,0.6-0.4,0.9-1,0.9
		s-1-0.4-1-0.9C69.3,34,69.8,33.7,70.3,33.7z"/>
	<path id="XMLID_26_" class="st1" d="M76.6,34.1c0.2,0.1,0.5,0.4,0.9,0.6c0.8,0.5,1.8,0.6,3.1,0.6c1.4,0,3.2-0.1,4.3-0.2
		c-0.1,0.2-0.2,0.7-0.3,0.9c-0.8,0.1-3,0.1-4.1,0.1c-1.5,0-2.5-0.1-3.3-0.7c-0.5-0.3-0.9-0.7-1.1-0.7c-0.4,0-1,0.7-1.6,1.5L74,35.4
		c0.6-0.7,1.2-1.2,1.8-1.4v-3.4h-1.6v-0.8h2.5V34.1z M76.3,28.2c-0.4-0.6-1.2-1.4-1.8-2l0.6-0.5c0.7,0.6,1.5,1.4,1.9,1.9L76.3,28.2z
		 M80,31.5c-0.2,1.1-0.6,2.3-1.7,3.1c-0.1-0.2-0.5-0.5-0.6-0.6c0.9-0.7,1.3-1.6,1.5-2.5h-1.6v-0.9h1.7c0-0.3,0-0.5,0-0.7v-1.4h-1.7
		v-0.9h1.7v-1.9h0.9v1.9h2v-1.9H83v1.9h1.5v0.9H83v2.1h1.8v0.9H83v3h-0.9v-3H80z M80.1,29.9c0,0.2,0,0.5,0,0.7h2v-2.1h-2V29.9z"/>
	<path id="XMLID_31_" class="st1" d="M89.6,25.7c3.8,2.7,3.4,7.2,7.4,9.6c-0.2,0.2-0.4,0.7-0.4,1c-2.7-1.5-3.6-4.3-4.9-6.7
		c-0.9,3.1-2.4,5.3-4.8,6.7c-0.2-0.2-0.6-0.6-0.8-0.7c2.7-1.4,4.2-3.8,4.9-7.2c-0.5-0.7-1.1-1.4-1.9-1.9L89.6,25.7z"/>
	<path id="XMLID_33_" class="st1" d="M100.6,29.2c-0.6,0.7-1.4,1.4-2.1,1.8c-0.1-0.2-0.3-0.5-0.5-0.7c0.8-0.4,1.7-1.1,2.3-1.9h-2.2
		v-0.7h2.5v-2.2h0.8v2.2h2.4v0.7h-2.3c0.6,0.3,1.6,1,1.9,1.2l-0.5,0.6c-0.3-0.3-1-0.9-1.6-1.3v1.6h-0.8V29.2z M102.4,35.5
		c-0.3-0.2-0.6-0.4-1-0.7c-0.9,0.7-1.9,1.2-3,1.4c-0.1-0.2-0.3-0.5-0.4-0.7c1-0.2,1.9-0.6,2.7-1.2c-0.6-0.3-1.2-0.6-1.8-0.8
		c0.3-0.4,0.5-0.8,0.8-1.3h-1.2v-0.8h1.6c0.1-0.3,0.2-0.5,0.3-0.8l0.8,0.1c-0.1,0.2-0.2,0.4-0.3,0.6h2l0.1,0l0.5,0.2
		c-0.3,1-0.8,1.9-1.4,2.5c0.4,0.2,0.7,0.4,1,0.6L102.4,35.5z M99.3,27.6c-0.1-0.4-0.4-1.1-0.7-1.6l0.6-0.3c0.3,0.5,0.7,1.1,0.8,1.5
		L99.3,27.6z M100.4,32.4c-0.2,0.3-0.4,0.7-0.5,0.9c0.4,0.2,0.9,0.4,1.4,0.6c0.5-0.4,0.9-1,1.1-1.6H100.4z M103.5,26
		c-0.3,0.5-0.7,1.1-1.1,1.5l-0.6-0.3c0.3-0.4,0.7-1.1,0.9-1.6L103.5,26z M108,28.6c-0.3,1.8-0.7,3.3-1.3,4.5c0.6,1.1,1.4,2,2.4,2.5
		c-0.2,0.2-0.5,0.5-0.6,0.7c-0.9-0.6-1.7-1.4-2.3-2.4c-0.7,1-1.6,1.9-2.8,2.5c-0.1-0.2-0.3-0.6-0.5-0.7c1.3-0.6,2.2-1.5,2.9-2.7
		c-0.5-0.9-0.8-2-1.1-3.2c-0.2,0.6-0.5,1.1-0.8,1.6c-0.1-0.1-0.5-0.4-0.7-0.5c0.9-1.3,1.5-3.3,1.8-5.3l0.8,0.1
		c-0.1,0.7-0.2,1.4-0.4,2.1h3.4v0.8H108z M105.2,28.6c0.2,1.3,0.6,2.5,1,3.6c0.4-1,0.7-2.2,0.9-3.6H105.2z"/>
	<path id="XMLID_41_" class="st1" d="M112.3,31.9v3.4c0,0.5-0.1,0.7-0.4,0.9c-0.3,0.1-0.7,0.2-1.5,0.2c0-0.2-0.1-0.6-0.3-0.8
		c0.5,0,1,0,1.1,0c0.1,0,0.2,0,0.2-0.2v-3.1c-0.5,0.2-1,0.3-1.4,0.4l-0.2-0.9c0.4-0.1,1-0.3,1.6-0.5v-2.6H110v-0.8h1.5v-2.4h0.8v2.4
		h1.4v0.8h-1.4v2.4l1.2-0.4l0.1,0.8L112.3,31.9z M118.2,31.2v1.5h2.3v3.8h-0.8v-0.4H116v0.5h-0.8v-3.8h2.1v-1.5H115
		c-0.1,1.8-0.4,3.8-1.4,5.3c-0.1-0.2-0.5-0.4-0.7-0.5c1.2-1.8,1.3-4.4,1.3-6.3V26h6.3v3.1h-2.3v1.3h2.7v0.8H118.2z M117.4,30.4v-1.3
		h-2.3v0.5c0,0.3,0,0.5,0,0.8H117.4z M115.1,26.8v1.5h4.6v-1.5H115.1z M119.7,33.4H116v1.8h3.7V33.4z"/>
	<path id="XMLID_47_" class="st1" d="M123.8,27.5v2.6c0,1.9-0.2,4.6-1.2,6.4c-0.2-0.2-0.6-0.4-0.8-0.5c1-1.7,1.1-4.1,1.1-5.9v-3.4
		h4.7c-0.1-0.3-0.3-0.7-0.6-1l0.9-0.2c0.3,0.4,0.5,0.8,0.7,1.2h4.2v0.8H123.8z M132.8,34.6h-3.4v1.8h-0.9v-1.8h-4.3v-0.8h4.3v-1.4
		h-2.1c-0.6,0-1,0.1-1.1,0.2c0-0.2-0.2-0.6-0.3-0.9c0.2,0,0.4-0.3,0.6-0.7c0.1-0.2,0.4-0.7,0.7-1.2h-1.8v-0.8h2.2
		c0.2-0.4,0.3-0.8,0.5-1.2l0.9,0.3c-0.1,0.3-0.3,0.6-0.4,0.9h4.6v0.8h-5c-0.3,0.7-0.7,1.3-1.1,1.8h2.3v-1.3h0.9v1.3h2.6v0.8h-2.6
		v1.4h3.4V34.6z"/>
	<path id="XMLID_50_" class="st1" d="M140.8,27.8c1,1.1,2.7,2.1,4.2,2.5c-0.2,0.2-0.5,0.5-0.6,0.7c-1.7-0.6-3.4-1.8-4.5-3.2v2.4H139
		v-2.4c-1.1,1.4-2.9,2.6-4.5,3.3c-0.1-0.2-0.4-0.5-0.6-0.7c1.5-0.5,3.1-1.5,4.1-2.6h-3.8V27h4.8v-1.5h0.9V27h4.9v0.8H140.8z
		 M134.4,35.2h10.2V36h-10.2V35.2z M142.7,30.6v3.9h-6.6v-3.9H142.7z M141.8,31.3H137v1h4.8V31.3z M141.8,32.9H137v1h4.8V32.9z"/>
	<path id="XMLID_56_" class="st1" d="M150,29.9c-0.2,0.3-0.3,0.6-0.5,0.8h6v5.7h-0.9V36h-5.2v0.5h-0.9V32c-0.6,0.7-1.3,1.3-2.1,1.8
		c-0.1-0.2-0.4-0.5-0.6-0.7c1.3-0.8,2.4-1.9,3.1-3.1h-2.8v-0.7h3.3c0.1-0.3,0.3-0.6,0.4-0.9h-2.8v-0.7h3c0.1-0.3,0.2-0.6,0.3-0.8
		c-1.1,0.1-2.2,0.1-3.3,0.1c0-0.2-0.1-0.5-0.2-0.7c2.9,0,6.5-0.2,8.4-0.6l0.6,0.6c-1.2,0.3-2.8,0.4-4.5,0.5
		c-0.1,0.3-0.2,0.6-0.3,0.9h4.9v0.7h-5.2c-0.1,0.3-0.3,0.6-0.4,0.9h6.3v0.7H150z M154.7,31.5h-5.2v0.8h5.2V31.5z M154.7,32.9h-5.2
		v0.8h5.2V32.9z M154.7,35.3v-0.9h-5.2v0.9H154.7z"/>
	<path id="XMLID_61_" class="st1" d="M163.9,30.7v1.9h3.2v0.8h-3.2v2h4.6v0.8h-10.1v-0.8h4.6v-2h-3.1v-0.8h3.1v-1.9h-3.2v-0.8
		c-0.5,0.3-0.9,0.6-1.4,0.8c-0.1-0.2-0.4-0.5-0.6-0.7c2.2-1,4.4-2.7,5.6-4.6l0.8,0.4c-0.1,0.1-0.1,0.2-0.2,0.3c1.5,1.7,3.2,3,5.2,4
		c-0.2,0.2-0.5,0.5-0.6,0.8c-0.5-0.3-0.9-0.6-1.4-0.9v0.8H163.9z M167.1,29.9c-1.3-0.9-2.5-1.9-3.6-3.2c-1,1.2-2.2,2.3-3.6,3.2
		H167.1z"/>
	<path id="XMLID_64_" class="st1" d="M175.5,28c-0.3,0.7-0.6,1.5-0.9,2.1h1.7v0.8h-6.2v-0.8h3.7c0.3-0.7,0.7-1.7,0.9-2.3L175.5,28z
		 M176.1,27.7h-5.6v-0.8h2.5c-0.1-0.4-0.3-0.9-0.5-1.2l0.8-0.2c0.3,0.5,0.5,1.1,0.6,1.5h2.2V27.7z M170.8,32h5v4.2h-0.9v-0.5h-3.3
		v0.6h-0.9V32z M171.9,30c-0.1-0.6-0.4-1.4-0.7-2.1l0.8-0.2c0.3,0.6,0.7,1.5,0.8,2L171.9,30z M171.6,32.8V35h3.3v-2.2H171.6z
		 M180.8,26.5c-0.4,1.1-1,2.5-1.5,3.6c1.1,1.1,1.3,2.1,1.3,2.9c0,0.7-0.2,1.3-0.5,1.5c-0.2,0.1-0.5,0.2-0.7,0.3c-0.3,0-0.7,0-1,0
		c0-0.2-0.1-0.6-0.2-0.9c0.3,0,0.7,0,0.9,0c0.2,0,0.3,0,0.5-0.1c0.2-0.2,0.3-0.5,0.3-0.9c0-0.8-0.3-1.6-1.4-2.7
		c0.4-1,0.9-2.3,1.2-3.2h-1.9v9.5H177V26.1h3.1l0.1,0L180.8,26.5z"/>
	<path id="XMLID_71_" class="st1" d="M192.7,32.8h-2.6v2.5c0,0.5-0.1,0.8-0.6,0.9c-0.4,0.1-1.1,0.1-2.3,0.1c0-0.2-0.2-0.6-0.3-0.8
		c0.9,0,1.7,0,2,0c0.2,0,0.3-0.1,0.3-0.3v-2.5h-4.5c0.7,0.6,1.5,1.4,1.9,2l-0.7,0.6c-0.4-0.6-1.2-1.5-1.9-2.2l0.5-0.5h-2.3V32h7
		v-0.9h0.9V32h2.6L192.7,32.8z M185.6,30.8c-1.9,0-2.5-0.2-2.5-1.4v-3.5h8.2v2.8H184v0.6c0,0.5,0.3,0.6,1.6,0.6h4.8
		c1,0,1.2-0.2,1.2-1c0.2,0.1,0.6,0.2,0.9,0.3c-0.2,1.2-0.5,1.5-2.1,1.5H185.6z M184,26.7V28h6.4v-1.3H184z"/>
	<path id="XMLID_75_" class="st1" d="M195.4,32.6h-0.8v-5.8h0.8V32.6z M196.5,25.5h0.8v4.8c0,2.4-0.2,4.5-2,6.2
		c-0.1-0.2-0.5-0.5-0.7-0.6c1.6-1.5,1.8-3.4,1.8-5.6V25.5z M201.8,26.9v1.5h2.6v5.3c0,0.4-0.1,0.6-0.4,0.8c-0.3,0.1-0.7,0.2-1.4,0.2
		c0-0.2-0.2-0.6-0.3-0.8c0.5,0,0.9,0,1,0c0.1,0,0.2,0,0.2-0.2v-4.5h-1.7v7.2h-0.9v-7.2h-1.6v5.5h-0.8v-6.3h2.4v-1.5h-2.8v-0.8h6.7
		v0.8H201.8z"/>
</g>
</svg>
